name rise38.3101peak57.3503fall81.6963.mot
datacolumns 19
datarows 12
range 11.18497300000000 11.20329300000000
endheader
time	ground_force1_vx	ground_force1_vy	ground_force1_vz	ground_force1_px	ground_force1_py	ground_force1_pz	ground_force2_vx	ground_force2_vy	ground_force2_vz	ground_force2_px	ground_force2_py	ground_force2_pz	ground_torque1_x	ground_torque1_y	ground_torque1_z	ground_torque2_x	ground_torque2_y	ground_torque2_z	
11.18497300000000	81.95943000000000	793.89066700000001	55.01338800000000	0.37663700000000	0.00000000000000	0.07997400000000	-0.20995300000000	3.14785600000000	0.43249400000000	0.00000000000000	0.00000000000000	0.00000000000000	0.00000000000000	27.33888200000000	0.00000000000000	0.00000000000000	0.01974000000000	0.00000000000000	
11.18663300000000	81.62904300000000	797.84994600000005	55.30637400000000	0.37597500000000	0.00000000000000	0.07996000000000	0.00000000000000	0.00000000000000	0.00000000000000	0.00000000000000	0.00000000000000	0.00000000000000	0.00000000000000	27.49111400000000	0.00000000000000	0.00000000000000	0.00000000000000	0.00000000000000	
11.18829400000000	81.27482999999999	801.58478400000001	55.58921900000000	0.37533000000000	0.00000000000000	0.07994500000000	0.00000000000000	0.00000000000000	0.00000000000000	0.00000000000000	0.00000000000000	0.00000000000000	0.00000000000000	27.63964700000000	0.00000000000000	0.00000000000000	0.00000000000000	0.00000000000000	
11.18996600000000	80.89734700000000	805.09189800000001	55.86157800000000	0.37470100000000	0.00000000000000	0.07992900000000	0.00000000000000	0.00000000000000	0.00000000000000	0.00000000000000	0.00000000000000	0.00000000000000	0.00000000000000	27.78427100000000	0.00000000000000	0.00000000000000	0.00000000000000	0.00000000000000	
11.19162500000000	80.49714800000000	808.36836000000005	56.12305800000000	0.37408800000000	0.00000000000000	0.07991300000000	0.00000000000000	0.00000000000000	0.00000000000000	0.00000000000000	0.00000000000000	0.00000000000000	0.00000000000000	27.92473400000000	0.00000000000000	0.00000000000000	0.00000000000000	0.00000000000000	
11.19329300000000	80.07479100000000	811.41160900000000	56.37321400000000	0.37349000000000	0.00000000000000	0.07989500000000	0.00000000000000	0.00000000000000	0.00000000000000	0.00000000000000	0.00000000000000	0.00000000000000	0.00000000000000	28.06074100000000	0.00000000000000	0.00000000000000	0.00000000000000	0.00000000000000	
11.19496200000000	79.63083000000000	814.21947200000000	56.61156400000000	0.37290800000000	0.00000000000000	0.07987600000000	0.00000000000000	0.00000000000000	0.00000000000000	0.00000000000000	0.00000000000000	0.00000000000000	0.00000000000000	28.19195900000000	0.00000000000000	0.00000000000000	0.00000000000000	0.00000000000000	
11.19662500000000	79.16582099999999	816.79016999999999	56.83758700000000	0.37234000000000	0.00000000000000	0.07985700000000	0.00000000000000	0.00000000000000	0.00000000000000	0.00000000000000	0.00000000000000	0.00000000000000	0.00000000000000	28.31802200000000	0.00000000000000	0.00000000000000	0.00000000000000	0.00000000000000	
11.19829500000000	78.68032300000000	819.12233500000002	57.05073400000000	0.37178500000000	0.00000000000000	0.07983600000000	0.00000000000000	0.00000000000000	0.00000000000000	0.00000000000000	0.00000000000000	0.00000000000000	0.00000000000000	28.43853500000000	0.00000000000000	0.00000000000000	0.00000000000000	0.00000000000000	
11.19996300000000	78.17489600000000	821.21501699999999	57.25043100000000	0.37124300000000	0.00000000000000	0.07981400000000	0.00000000000000	0.00000000000000	0.00000000000000	0.00000000000000	0.00000000000000	0.00000000000000	0.00000000000000	28.55307600000000	0.00000000000000	0.00000000000000	0.00000000000000	0.00000000000000	
11.20162500000000	77.65009999999999	823.06769299999996	57.43608700000000	0.37071300000000	0.00000000000000	0.07979200000000	0.00000000000000	0.00000000000000	0.00000000000000	0.00000000000000	0.00000000000000	0.00000000000000	0.00000000000000	28.66120200000000	0.00000000000000	0.00000000000000	0.00000000000000	0.00000000000000	
11.20329300000000	77.10650000000000	824.68027800000004	57.60709700000000	0.37019400000000	0.00000000000000	0.07976800000000	0.00000000000000	0.00000000000000	0.00000000000000	0.00000000000000	0.00000000000000	0.00000000000000	0.00000000000000	28.76245400000000	0.00000000000000	0.00000000000000	0.00000000000000	0.00000000000000	
